<?xml version="1.0" standalone="no"?>
<!DOCTYPE svg PUBLIC "-//W3C//DTD SVG 20010904//EN"
 "http://www.w3.org/TR/2001/REC-SVG-20010904/DTD/svg10.dtd">
<svg version="1.0" xmlns="http://www.w3.org/2000/svg"
 width="640.000000pt" height="640.000000pt" viewBox="0 0 640.000000 640.000000"
 preserveAspectRatio="xMidYMid meet">
<metadata>
Created by potrace 1.14, written by Peter Selinger 2001-2017
</metadata>
<g transform="translate(0.000000,640.000000) scale(0.100000,-0.100000)"
fill="#000000" stroke="none">
<path d="M3093 6014 c-18 -9 -53 -38 -78 -65 -68 -73 -96 -82 -256 -82 -80 1
-145 5 -157 12 -27 14 -398 15 -407 1 -4 -6 -66 -11 -148 -12 -78 -1 -116 -3
-84 -5 60 -4 80 -23 24 -23 -19 0 -48 -7 -66 -16 -37 -18 -70 -12 -52 10 9 11
5 15 -21 19 -61 9 -112 35 -143 71 -38 44 -69 56 -151 56 l-64 0 -74 -70 c-40
-39 -79 -83 -85 -99 -16 -37 -9 -251 9 -308 14 -42 14 -43 -17 -75 -34 -37
-61 -106 -45 -117 6 -4 6 -15 1 -30 -7 -17 -15 -22 -29 -18 -18 5 -20 0 -20
-43 0 -27 5 -52 10 -55 15 -9 2 -25 -21 -25 -25 0 -25 -26 1 -40 17 -9 22 -7
32 15 7 15 29 35 50 46 21 11 38 23 38 28 0 5 14 14 31 21 42 18 62 -1 31 -30
-12 -12 -22 -25 -22 -31 0 -5 -11 -27 -25 -47 -14 -20 -25 -47 -25 -59 0 -36
-38 -109 -71 -133 -16 -13 -29 -29 -29 -36 0 -7 -8 -17 -17 -23 -16 -8 -16
-11 5 -28 l22 -18 -20 -32 c-22 -37 -28 -39 -54 -20 -16 12 -17 17 -6 37 11
20 10 25 -6 37 -10 7 -28 13 -40 13 -17 0 -23 -7 -26 -27 -3 -25 -23 -37 -23
-14 0 5 -3 13 -8 17 -4 4 -7 -41 -7 -101 l0 -108 62 -70 62 -70 6 -81 c4 -68
9 -87 33 -117 15 -20 27 -47 27 -60 0 -15 14 -38 35 -59 19 -19 35 -43 35 -54
1 -28 30 52 30 82 0 12 5 22 10 22 6 0 10 9 10 19 0 11 9 30 20 43 11 12 26
31 33 40 6 10 28 19 47 22 19 2 43 7 52 11 21 8 33 -14 24 -48 -9 -37 -57 -87
-82 -87 -19 0 -24 -5 -24 -25 0 -17 -7 -28 -23 -34 -12 -5 -29 -21 -36 -35 -8
-14 -18 -26 -23 -26 -16 0 -8 -30 12 -40 28 -15 25 -52 -6 -81 -14 -13 -32
-36 -40 -51 -19 -36 -36 -36 -33 0 3 46 -1 73 -10 68 -14 -9 -71 -133 -71
-155 0 -12 -4 -21 -10 -21 -5 0 -10 -5 -10 -11 0 -6 -13 -27 -30 -46 -22 -24
-30 -44 -30 -71 0 -20 -3 -53 -6 -73 -6 -33 -3 -38 25 -55 18 -11 62 -59 98
-109 37 -49 89 -112 116 -138 l50 -49 -6 -57 c-3 -38 -13 -69 -31 -95 -14 -21
-26 -46 -26 -54 0 -8 -13 -36 -29 -61 -16 -25 -32 -66 -35 -91 -4 -25 -23 -77
-43 -115 -42 -82 -60 -141 -74 -245 -24 -180 -23 -176 -70 -228 -24 -27 -57
-57 -74 -67 -44 -28 -132 -112 -179 -173 -22 -30 -53 -70 -68 -89 -23 -29 -28
-46 -28 -90 0 -35 -7 -68 -21 -95 -22 -43 -22 -54 -1 -169 5 -25 19 -61 32
-80 19 -25 26 -50 28 -101 6 -91 1 -104 -63 -183 -65 -78 -78 -102 -94 -169
-7 -27 -19 -58 -27 -70 -8 -13 -14 -45 -14 -84 0 -43 -6 -75 -20 -102 -15 -30
-20 -59 -20 -122 0 -64 -5 -92 -20 -121 -11 -20 -20 -56 -20 -80 0 -23 -9 -59
-20 -80 -18 -33 -20 -56 -20 -232 l0 -195 2690 0 2690 0 0 88 c0 80 -3 91 -30
131 -25 37 -30 54 -30 106 0 35 9 90 20 125 15 48 20 90 20 184 0 104 3 127
21 160 18 34 20 50 15 115 -4 42 -11 144 -16 226 -13 207 -22 276 -43 305 -11
16 -17 44 -17 85 -1 38 -8 74 -20 100 -14 28 -20 62 -20 115 0 42 -9 106 -20
145 -16 57 -19 103 -20 247 0 171 -1 177 -24 205 -13 15 -30 44 -39 64 -19 46
-56 75 -107 83 -28 4 -53 19 -85 49 l-45 44 0 104 c0 90 -3 110 -24 152 -14
26 -30 65 -37 85 -7 20 -34 69 -60 109 -27 39 -53 89 -57 111 -5 22 -17 50
-26 63 -9 13 -16 33 -16 45 0 12 -16 41 -35 65 -19 24 -37 58 -40 74 -9 43
-56 188 -66 200 -4 6 -13 33 -20 60 -23 94 -101 185 -197 230 -56 26 -93 54
-188 138 -30 26 -62 47 -70 47 -15 0 -231 204 -323 303 -50 55 -59 112 -45
291 6 76 5 79 -25 116 -26 33 -31 48 -31 92 0 48 -4 59 -40 102 -22 26 -40 56
-40 65 0 9 -13 32 -30 51 -16 19 -29 42 -30 51 0 9 -73 89 -162 177 -131 131
-167 162 -189 162 -28 0 -96 51 -145 109 -22 27 -24 37 -24 139 0 63 -4 113
-10 117 -5 3 -10 17 -10 30 0 13 -17 42 -42 68 -41 43 -49 47 -153 71 -128 30
-130 30 -172 10z m-926 -295 c15 -6 57 -13 92 -15 39 -2 70 -9 81 -19 11 -10
27 -13 48 -9 26 5 38 1 67 -25 20 -17 47 -31 60 -31 43 0 115 -54 115 -85 0
-7 7 -21 16 -30 9 -9 14 -18 12 -21 -7 -7 -108 15 -143 31 -25 11 -41 12 -85
2 -52 -12 -56 -15 -64 -50 -13 -51 -26 -47 -26 8 0 32 -4 45 -14 45 -8 0 -21
3 -29 6 -11 4 -16 -2 -19 -18 -2 -13 -11 -24 -22 -26 -27 -6 -66 18 -66 40 0
33 -20 58 -45 58 -25 0 -65 -35 -65 -57 0 -7 -4 -13 -9 -13 -22 0 -111 -46
-111 -57 0 -17 43 -27 85 -19 28 6 35 4 35 -9 0 -9 -9 -15 -25 -15 -14 0 -34
-9 -45 -20 -11 -11 -27 -20 -36 -20 -8 0 -13 -4 -10 -8 2 -4 -11 -6 -31 -4
-34 4 -108 -13 -127 -30 -16 -13 -56 -9 -56 6 0 25 12 46 26 46 8 0 35 16 61
36 27 21 62 43 79 50 24 10 33 21 38 49 5 24 12 35 24 35 9 0 28 14 42 30 21
26 30 29 57 24 26 -5 33 -3 33 10 0 9 -7 16 -15 16 -11 0 -15 11 -15 43 0 24
3 47 7 50 10 10 48 8 80 -4z m-308 -35 c57 -12 30 -64 -33 -64 -13 0 -31 -7
-40 -15 -8 -8 -22 -12 -31 -9 -22 9 -113 -35 -120 -56 -3 -10 -25 -23 -51 -30
-25 -7 -63 -29 -87 -51 -23 -22 -51 -39 -63 -39 -11 0 -29 -7 -40 -15 -20 -15
-54 -20 -54 -8 0 3 7 13 15 22 8 9 27 31 41 49 14 17 32 32 40 32 7 0 21 11
30 25 9 14 25 25 35 25 10 0 33 9 51 20 18 11 44 20 58 20 14 0 52 16 85 36
57 35 113 63 126 64 4 0 21 -3 38 -6z m-154 -204 c-3 -5 -10 -10 -16 -10 -5 0
-9 5 -9 10 0 6 7 10 16 10 8 0 12 -4 9 -10z m395 -5 c0 -8 -4 -15 -10 -15 -5
0 -10 7 -10 15 0 8 5 15 10 15 6 0 10 -7 10 -15z m-437 -26 c-3 -11 -13 -23
-22 -26 -9 -2 -24 -9 -33 -14 -39 -20 -40 -7 -3 26 46 40 66 45 58 14z m-128
-158 c9 -15 -34 -33 -62 -26 -20 5 -23 8 -13 20 14 17 66 20 75 6z m255 -141
c0 -10 -7 -23 -16 -31 -13 -10 -17 -10 -25 2 -12 19 -11 27 3 43 16 17 38 9
38 -14z m-166 -16 c19 -7 9 -34 -13 -34 -25 0 -32 10 -18 26 14 16 12 15 31 8z
m-204 -180 c0 -18 -24 -44 -40 -44 -23 0 -24 4 -10 31 10 17 50 28 50 13z
m190 -70 c0 -13 -42 -74 -51 -74 -12 0 -12 22 1 54 6 16 17 26 30 26 11 0 20
-3 20 -6z m-170 -36 c0 -16 -3 -19 -11 -11 -6 6 -8 16 -5 22 11 17 16 13 16
-11z m-40 -778 c0 -5 -4 -10 -9 -10 -6 0 -13 5 -16 10 -3 6 1 10 9 10 9 0 16
-4 16 -10z m2213 -1207 c29 -4 41 -12 48 -32 6 -14 30 -45 55 -68 57 -55 57
-79 3 -124 -52 -42 -89 -81 -89 -92 0 -5 -25 -33 -55 -62 -44 -43 -55 -60 -55
-85 0 -29 -15 -68 -30 -80 -22 -18 -62 -85 -84 -144 -14 -38 -42 -87 -62 -109
-35 -38 -36 -41 -29 -94 6 -47 3 -59 -16 -88 -13 -18 -45 -46 -71 -62 -26 -15
-48 -31 -48 -34 0 -18 74 -23 380 -25 184 -1 341 -3 348 -3 6 -1 12 -8 12 -16
0 -9 16 -25 35 -36 46 -28 46 -61 0 -113 l-35 -39 -187 4 c-104 2 -225 2 -270
1 -83 -2 -220 22 -323 58 -170 59 -183 68 -174 117 5 28 3 37 -15 49 -35 25
-27 51 19 59 31 5 44 14 55 35 8 16 31 41 51 56 20 16 40 37 45 48 5 12 14 29
21 38 10 14 9 24 -5 53 -17 35 -16 37 5 65 12 17 25 30 30 30 11 0 40 59 49
100 13 59 39 121 69 164 16 23 34 61 40 85 7 28 28 61 58 93 45 48 46 50 27
65 -16 12 -37 14 -105 8 -47 -4 -139 -10 -205 -14 -66 -3 -127 -11 -135 -16
-16 -10 -118 -30 -236 -47 -75 -11 -84 -10 -115 8 -19 11 -36 29 -37 40 -2 10
-16 32 -30 47 -34 36 -23 56 44 78 57 19 301 67 400 78 84 10 564 13 617 4z
m427 -875 c47 -50 14 -148 -50 -148 -17 0 -30 1 -30 3 0 1 -7 20 -14 42 -9 24
-16 34 -19 25 -3 -8 -7 -22 -10 -31 -3 -10 -29 -20 -76 -29 -60 -11 -73 -11
-92 2 -20 13 -24 13 -42 -5 -13 -13 -27 -17 -46 -14 -20 4 -32 0 -45 -15 -29
-33 -110 -20 -181 29 -82 57 -87 97 -11 92 22 -2 51 0 64 5 28 9 59 -14 64
-48 2 -15 10 -21 28 -21 17 0 24 5 21 15 -13 51 -13 60 4 67 12 4 24 -1 36
-15 21 -27 39 -28 39 -3 0 35 10 37 238 40 19 1 43 8 55 16 29 20 43 19 67 -7z
m-1172 -448 c4 -23 -15 -43 -30 -34 -10 6 -11 48 -1 58 12 12 28 0 31 -24z
m102 -24 c11 -31 29 -41 43 -27 19 19 38 13 32 -11 -6 -28 3 -43 31 -52 15 -5
24 0 34 19 23 42 41 28 46 -36 3 -32 1 -39 -14 -39 -11 0 -26 8 -36 19 -10 11
-25 16 -40 14 -17 -4 -30 2 -42 16 -13 14 -30 21 -54 21 -20 0 -41 5 -48 12
-13 13 -17 70 -5 81 15 15 44 6 53 -17z m283 -116 c16 -30 17 -35 3 -48 -14
-14 -19 -14 -51 1 -33 16 -34 18 -23 44 23 53 43 54 71 3z m87 -6 c11 -12 10
-18 -3 -32 -21 -21 -42 -3 -32 27 8 25 18 27 35 5z m88 -31 c2 -12 10 -27 18
-34 12 -10 16 -8 21 10 5 21 6 21 19 -5 8 -14 14 -28 14 -30 0 -5 -53 -4 -102
3 -39 5 -52 28 -23 39 8 4 15 15 15 26 0 27 34 19 38 -9z m670 15 c23 -23 14
-48 -18 -48 -16 0 -41 -5 -55 -12 -22 -10 -31 -9 -56 6 -28 16 -32 17 -48 2
-20 -18 -47 -21 -56 -6 -3 6 -18 3 -38 -6 -25 -12 -39 -13 -60 -5 -38 15 -35
37 6 38 41 1 96 12 122 23 41 19 187 24 203 8z m-518 -38 c0 -5 -2 -10 -4 -10
-3 0 -8 5 -11 10 -3 6 -1 10 4 10 6 0 11 -4 11 -10z m80 -10 c0 -5 -4 -10 -10
-10 -5 0 -10 5 -10 10 0 6 5 10 10 10 6 0 10 -4 10 -10z"/>
<path d="M2157 5624 c-13 -14 -7 -21 18 -20 14 1 26 6 28 11 2 12 -36 19 -46
9z"/>
<path d="M1162 5118 c-14 -14 -16 -42 -3 -34 7 5 23 46 17 46 -1 0 -7 -5 -14
-12z"/>
<path d="M1131 5054 c0 -11 3 -14 6 -6 3 7 2 16 -1 19 -3 4 -6 -2 -5 -13z"/>
<path d="M1167 4994 c-22 -19 -57 -87 -57 -111 0 -2 12 -3 28 -1 22 2 32 14
54 58 15 30 28 58 28 61 1 18 -29 14 -53 -7z"/>
<path d="M1291 4044 c0 -11 3 -14 6 -6 3 7 2 16 -1 19 -3 4 -6 -2 -5 -13z"/>
</g>
</svg>
